<svg width="600" height="300" viewBox="0 0 888 678" fill="none" xmlns="http://www.w3.org/2000/svg">
<g id="undraw_walking_outside_5ueb 1" clip-path="url(#clip0)">
<path id="bird-3" d="M146.963 137.437L163 126.158C150.542 124.949 145.423 130.924 143.328 135.653C133.595 132.099 123 136.757 123 136.757L155.086 147C153.468 143.198 150.65 139.881 146.963 137.437Z" fill="#3F3D56"/>
<path id="bird-2" d="M59.9634 35.4369L76 24.158C63.5419 22.9493 58.423 28.9241 56.3281 33.6531C46.5953 30.0993 36 34.7568 36 34.7568L68.0863 45C66.4676 41.198 63.6499 37.8807 59.9634 35.4369V35.4369Z" fill="#3F3D56"/>
<path id="bird-2_2" d="M621.963 137.437L638 126.158C625.542 124.949 620.423 130.924 618.328 135.653C608.595 132.099 598 136.757 598 136.757L630.086 147C628.468 143.198 625.65 139.881 621.963 137.437V137.437Z" fill="#3F3D56"/>
<path id="bird-2_3" d="M601.963 24.4369L618 13.158C605.542 11.9493 600.423 17.9241 598.328 22.6531C588.595 19.0993 578 23.7568 578 23.7568L610.086 34C608.468 30.198 605.65 26.8807 601.963 24.4369V24.4369Z" fill="#3F3D56"/>
<path id="bird-2_4" d="M785.963 106.437L802 95.158C789.542 93.9493 784.423 99.9241 782.328 104.653C772.595 101.099 762 105.757 762 105.757L794.086 116C792.468 112.198 789.65 108.881 785.963 106.437V106.437Z" fill="#3F3D56"/>
<path id="bird-1" d="M384.963 116.437L401 105.158C388.542 103.949 383.423 109.924 381.328 114.653C371.595 111.099 361 115.757 361 115.757L393.086 126C391.468 122.198 388.65 118.881 384.963 116.437V116.437Z" fill="#3F3D56"/>
<g id="Girl">
<path id="Vector" d="M235.204 642.462C235.204 642.462 310.864 621.725 338.545 630.613L368.071 603.951L342.236 587.657C342.236 587.657 320.091 605.432 303.483 603.951C286.875 602.469 227.823 600.988 227.823 600.988L235.204 642.462Z" fill="#FFB9B9"/>
<path id="Vector_2" d="M387.554 541.821C388.435 543.032 389.271 544.186 390.037 545.248V637.185C389.429 638.037 388.514 638.721 387.412 639.147C386.309 639.573 385.072 639.72 383.863 639.569C381.124 639.141 375.554 638.042 369.148 636.682C353.992 633.459 334.148 628.727 336.26 627.703C336.26 627.7 336.261 627.698 336.262 627.695C336.263 627.693 336.265 627.691 336.267 627.689C336.269 627.688 336.272 627.686 336.275 627.685C336.277 627.684 336.281 627.684 336.284 627.684C339.579 626.249 354.341 623.287 352.507 615.873C350.65 608.458 346.96 596.61 346.96 596.61C346.96 596.61 335.123 600.839 330.342 596.796C329.335 595.927 328.694 594.825 328.509 593.648C326.675 584.761 343.27 584.761 343.27 584.761L365.412 552.178C366.38 549.37 367.63 546.629 369.148 543.981C373.001 537.368 379.593 530.829 387.554 541.821Z" fill="#2F2E41"/>
<path id="Vector_3" d="M248.122 635.178L321.654 645.571L353.683 642.701L356.566 625.972L344.39 617.931C344.39 617.931 309.164 622.283 297.911 615.525C286.658 608.768 239.01 601.773 239.01 601.773L248.122 635.178Z" fill="#FFB9B9"/>
<path id="Vector_4" d="M341.894 615.917C341.894 615.917 323.918 613.764 328.302 605.469C332.686 597.175 346.701 604.328 346.701 604.328L387.172 586.367C387.172 586.367 413.772 566.593 412.79 587.156C411.808 607.718 410.818 608.968 405.867 615.218C400.916 621.467 376.863 640.787 371.489 650.331C366.115 659.875 351.118 673.285 344.322 668.061C337.527 662.837 308.358 637.325 312.11 637.53C315.861 637.736 330.299 641.595 333.693 634.551C337.087 627.506 341.894 615.917 341.894 615.917Z" fill="#2F2E41"/>
<path id="Polygon 1" d="M168.908 420.405C172.765 413.779 182.336 413.779 186.193 420.405L306.111 626.429C309.991 633.096 305.182 641.46 297.468 641.46H57.6329C49.9192 641.46 45.11 633.096 48.9903 626.429L168.908 420.405Z" fill="#C4C4C4"/>
<path id="Vector_5" d="M107.361 358.344L87.8146 422.701L107.934 505.266C107.934 505.266 108.43 539.018 126.867 536.457C145.305 533.895 125.983 499.855 125.983 499.855L116.964 432.156L145.798 365.272C146.878 362.537 146.731 359.584 145.383 356.927C144.036 354.269 141.572 352.074 138.419 350.721V350.721C127.002 345.125 110.778 349.107 107.361 358.344Z" fill="#FFB9B9"/>
<path id="Vector_6" d="M175.97 302.859L159.362 344.333L127.99 331.002C127.99 331.002 140.908 301.377 140.908 296.934C140.908 292.49 175.97 302.859 175.97 302.859Z" fill="#FFB9B9"/>
<path id="Vector_7" d="M163.052 319.152C184.455 319.152 201.805 305.226 201.805 288.047C201.805 270.867 184.455 256.941 163.052 256.941C141.65 256.941 124.3 270.867 124.3 288.047C124.3 305.226 141.65 319.152 163.052 319.152Z" fill="#FFB9B9"/>
<path id="Vector_8" d="M173.202 353.961L165.82 348.036L163.975 340.63C163.975 340.63 139.985 315.449 119.686 324.336C113.343 327.114 108.621 333.507 105.127 340.986C96.2289 360.532 97.0591 382.078 107.445 401.146L139.985 462.09L213.8 456.165L200.882 417.653C200.882 417.653 213.8 393.954 189.81 377.66L173.202 353.961Z" fill="#DE2B81"/>
<path id="Vector_9" d="M116.52 369.963L168.588 421.356L262.702 458.387C262.702 458.387 296.504 478.467 305.104 465.129C313.704 451.79 268.238 443.575 268.238 443.575L195.59 408.429L146.626 349.569C144.564 347.226 141.544 345.535 138.092 344.791C134.639 344.047 130.971 344.296 127.724 345.495C115.269 349.414 109.416 362.196 116.52 369.963Z" fill="#FFB9B9"/>
<path id="Vector_10" d="M183.348 261.498C183.348 261.46 183.351 261.423 183.351 261.385C183.351 252.889 180.213 244.584 174.332 237.52C168.452 230.456 160.094 224.95 150.315 221.699C140.537 218.448 129.776 217.597 119.395 219.255C109.014 220.912 99.4787 225.003 91.9944 231.011C84.51 237.018 79.4132 244.672 77.3482 253.004C75.2833 261.337 76.3432 269.974 80.3936 277.823C84.4441 285.672 91.3034 292.381 100.104 297.101C108.905 301.821 119.251 304.34 129.836 304.34C131.079 304.34 135.995 311.813 137.217 311.746C137.291 289.072 155.564 263.02 183.348 261.498Z" fill="#2F2E41"/>
<path id="Vector_11" d="M133.982 236.286C153.346 236.286 169.044 223.686 169.044 208.143C169.044 192.6 153.346 180 133.982 180C114.618 180 98.9199 192.6 98.9199 208.143C98.9199 223.686 114.618 236.286 133.982 236.286Z" fill="#2F2E41"/>
<path id="Vector_12" d="M153.825 252.497H172.279C181.089 252.497 189.538 255.306 195.767 260.306C201.996 265.307 205.496 272.088 205.496 279.159V279.159H153.825V252.497Z" fill="#2F2E41"/>
</g>
<path id="Polygon 2" d="M598 560L657.756 642.5H538.244L598 560Z" fill="#C4C4C4"/>
<path id="marble" d="M598 584C711.771 584 804 506.769 804 411.5C804 316.231 711.771 239 598 239C484.229 239 392 316.231 392 411.5C392 506.769 484.229 584 598 584Z" fill="url(#paint0_linear)"/>
</g>
<defs>
<linearGradient id="paint0_linear" x1="740" y1="302" x2="486" y2="538" gradientUnits="userSpaceOnUse">
<stop stop-color="#FC1140"/>
<stop offset="1" stop-color="#4F85D7" stop-opacity="0.95"/>
</linearGradient>
<clipPath id="clip0">
<rect width="888" height="677.207" fill="white"/>
</clipPath>
</defs>
</svg>
