<svg width="892" height="574" viewBox="0 0 892 574" fill="none" xmlns="http://www.w3.org/2000/svg">
<g id="undraw_donut_love_kau1 1" clip-path="url(#clip0)">
<path id="Vector" d="M890.029 571.273H2.02924V573.513H890.029V571.273Z" fill="#3F3D56"/>
<path id="third-piece" d="M672.697 447.69C676.011 447.69 678.697 445.003 678.697 441.69C678.697 438.376 676.011 435.69 672.697 435.69C669.384 435.69 666.697 438.376 666.697 441.69C666.697 445.003 669.384 447.69 672.697 447.69Z" fill="#FF6347"/>
<path id="second-piece" d="M689.04 399.253C692.353 399.253 695.04 396.567 695.04 393.253C695.04 389.94 692.353 387.253 689.04 387.253C685.726 387.253 683.04 389.94 683.04 393.253C683.04 396.567 685.726 399.253 689.04 399.253Z" fill="#FF6347"/>
<path id="top-piece" d="M674.097 374.495C677.411 374.495 680.097 371.808 680.097 368.495C680.097 365.181 677.411 362.495 674.097 362.495C670.783 362.495 668.097 365.181 668.097 368.495C668.097 371.808 670.783 374.495 674.097 374.495Z" fill="#FF6347"/>
<path id="bottom-piece" d="M669.697 486.69C673.011 486.69 675.697 484.003 675.697 480.69C675.697 477.376 673.011 474.69 669.697 474.69C666.384 474.69 663.697 477.376 663.697 480.69C663.697 484.003 666.384 486.69 669.697 486.69Z" fill="#FF6347"/>
<g id="Donut-tree-left">
<path id="Vector_2" d="M250.142 391.807L249.38 391.896L249.86 396.01L250.621 395.921L250.142 391.807Z" fill="#3F3D56"/>
<path id="Vector_3" d="M254.69 428.114L254.449 427.386L250.518 428.69L250.759 429.418L254.69 428.114Z" fill="white"/>
<path id="Vector_4" d="M251.127 406.787L250.361 406.833L250.61 410.967L251.376 410.921L251.127 406.787Z" fill="white"/>
<path id="Vector_5" d="M247.547 384.117L246.782 384.163L247.03 388.297L247.796 388.251L247.547 384.117Z" fill="white"/>
<path id="Vector_6" d="M302.258 401.026L301.97 400.315L298.13 401.866L298.417 402.578L302.258 401.026Z" fill="#FF6584"/>
<path id="Vector_7" d="M256.981 399.817L256.241 399.619L255.169 403.619L255.909 403.818L256.981 399.817Z" fill="#FF6584"/>
<path id="Vector_8" d="M294.882 394.16L294.372 393.65L291.62 396.402L292.129 396.912L294.882 394.16Z" fill="white"/>
<path id="Vector_9" d="M302.119 435.853L301.61 435.343L298.857 438.096L299.367 438.605L302.119 435.853Z" fill="white"/>
<path id="Vector_10" d="M296.345 418.572L295.649 418.385L294.641 422.145L295.338 422.331L296.345 418.572Z" fill="#FF6584"/>
<path id="Vector_11" d="M298.144 404.354L297.634 403.844L294.882 406.596L295.391 407.106L298.144 404.354Z" fill="#FF6584"/>
<g id="group">
<path id="Vector_12" d="M286.208 402.67C286.828 402.05 287.177 401.209 287.177 400.332C287.177 399.455 286.828 398.614 286.208 397.994C285.588 397.374 284.747 397.025 283.87 397.025C282.993 397.025 282.152 397.374 281.532 397.994L176.015 503.51C175.395 504.13 175.047 504.972 175.047 505.849C175.047 506.726 175.395 507.567 176.015 508.187C176.635 508.807 177.476 509.155 178.354 509.155C179.231 509.155 180.072 508.807 180.692 508.187L285.529 403.349" fill="#3F3D56"/>
<path id="Vector_13" d="M296.994 389.353C289.308 381.676 279.319 376.729 268.555 375.266C257.791 373.804 246.844 375.908 237.389 381.256C227.934 386.605 220.491 394.903 216.198 404.881C211.906 414.86 211 425.971 213.62 436.513C216.24 447.055 222.24 456.449 230.704 463.258C239.169 470.067 249.63 473.916 260.489 474.217C271.347 474.517 282.006 471.252 290.833 464.922C299.661 458.591 306.172 449.543 309.371 439.162C312.031 430.519 312.284 421.314 310.104 412.538C307.923 403.761 303.39 395.746 296.994 389.353V389.353ZM256.291 443.448C252.869 442.498 249.751 440.678 247.241 438.166C246.734 437.658 246.264 437.123 245.813 436.578C242.712 432.758 241.08 427.956 241.21 423.038C241.34 418.12 243.224 413.41 246.521 409.76C249.819 406.109 254.314 403.758 259.193 403.13C264.072 402.502 269.015 403.64 273.13 406.337C277.244 409.035 280.258 413.114 281.629 417.839C282.999 422.564 282.635 427.623 280.602 432.103C278.569 436.583 275.002 440.189 270.544 442.269C266.085 444.349 261.03 444.767 256.291 443.448Z" fill="#FF6347"/>
<path id="Vector_14" d="M184.328 112.945C184.328 110.003 183.16 107.182 181.079 105.101C178.999 103.021 176.177 101.852 173.235 101.852C170.293 101.852 167.472 103.021 165.391 105.101C163.311 107.182 162.142 110.003 162.142 112.945V580.484C162.142 581.941 162.429 583.383 162.987 584.729C163.544 586.075 164.361 587.298 165.391 588.328C166.421 589.358 167.644 590.175 168.99 590.733C170.336 591.29 171.779 591.577 173.235 591.577C174.692 591.577 176.135 591.29 177.48 590.733C178.826 590.175 180.049 589.358 181.079 588.328C182.109 587.298 182.926 586.075 183.484 584.729C184.041 583.383 184.328 581.941 184.328 580.484V116.167" fill="#3F3D56"/>
<path id="Vector_15" d="M325.83 108.801C306.782 72.772 275.209 44.9582 237.065 30.6056C198.922 16.2529 156.845 16.3536 118.771 30.8886C80.6964 45.4236 49.2565 73.3882 30.3811 109.508C11.5057 145.628 6.49935 187.406 16.3064 226.963C26.1135 266.519 50.056 301.121 83.6182 324.24C117.18 347.359 158.042 357.398 198.497 352.464C238.951 347.53 276.202 327.964 303.224 297.455C330.245 266.947 345.169 227.605 345.18 186.851C345.192 159.645 338.549 132.85 325.83 108.801V108.801ZM212.322 247.091C199.088 254.562 183.762 257.465 168.713 255.354C153.663 253.242 139.728 246.233 129.061 235.41C118.393 224.586 111.587 210.551 109.694 195.472C107.802 180.394 110.928 165.112 118.589 151.987C126.251 138.863 138.022 128.627 152.082 122.862C166.143 117.097 181.711 116.123 196.381 120.09C211.051 124.058 224.006 132.747 233.243 144.814C242.481 156.88 247.488 171.654 247.489 186.851C247.526 199.114 244.285 211.165 238.102 221.756C231.919 232.347 223.019 241.094 212.322 247.091H212.322Z" fill="#FF6347"/>
<path id="Vector_16" opacity="0.2" d="M177.847 343.054C134.498 343.053 92.852 326.181 61.7264 296.01C30.6007 265.839 12.4396 224.739 11.0886 181.412C11.0308 183.216 11.0013 185.028 11 186.847C10.9946 208.761 15.3063 230.461 23.6887 250.709C32.0712 270.956 44.3601 289.354 59.8538 304.852C75.3475 320.349 93.7424 332.643 113.988 341.03C134.233 349.417 155.933 353.734 177.847 353.734C199.761 353.734 221.46 349.417 241.706 341.03C261.951 332.643 280.346 320.349 295.84 304.852C311.333 289.354 323.622 270.956 332.005 250.709C340.387 230.461 344.699 208.761 344.693 186.847C344.693 185.026 344.664 183.212 344.605 181.405C343.256 224.734 325.095 265.836 293.969 296.008C262.844 326.18 221.196 343.053 177.847 343.054V343.054Z" fill="black"/>
<path id="Vector_17" opacity="0.2" d="M178.33 103.595C161.865 103.596 145.77 108.479 132.08 117.627C118.39 126.775 107.72 139.777 101.419 154.989C95.1189 170.201 93.4706 186.94 96.6831 203.089C99.8955 219.237 107.824 234.071 119.467 245.714C131.11 257.356 145.943 265.285 162.092 268.498C178.241 271.71 194.979 270.062 210.191 263.761C225.403 257.461 238.406 246.791 247.554 233.101C256.702 219.411 261.585 203.316 261.586 186.851C261.561 164.777 252.782 143.615 237.174 128.007C221.565 112.399 200.403 103.619 178.33 103.595V103.595ZM212.322 247.091C199.088 254.562 183.762 257.465 168.713 255.354C153.663 253.242 139.728 246.233 129.06 235.41C118.393 224.586 111.587 210.551 109.694 195.472C107.802 180.394 110.928 165.112 118.589 151.987C126.251 138.863 138.022 128.627 152.082 122.862C166.143 117.097 181.711 116.123 196.381 120.09C211.051 124.058 224.005 132.747 233.243 144.814C242.481 156.88 247.487 171.654 247.489 186.851C247.526 199.114 244.285 211.165 238.102 221.756C231.919 232.347 223.019 241.094 212.322 247.091V247.091Z" fill="black"/>
<path id="Vector_18" d="M325.833 106.796V134.551C325.834 136.577 325.229 138.558 324.095 140.237C322.961 141.917 321.35 143.218 319.47 143.974C317.589 144.73 315.526 144.906 313.545 144.479C311.564 144.052 309.756 143.041 308.355 141.578V144.741C308.355 147.938 307.084 151.005 304.823 153.266C302.562 155.527 299.496 156.797 296.298 156.797C293.101 156.797 290.034 155.527 287.773 153.266C285.512 151.005 284.242 147.938 284.242 144.741V142.105C282.783 143.417 280.976 144.278 279.038 144.583C277.101 144.889 275.116 144.626 273.325 143.826C271.533 143.027 270.012 141.725 268.946 140.079C267.879 138.433 267.313 136.513 267.315 134.551L266.832 105.051V98.2461C266.83 97.157 266.396 96.1131 265.625 95.3436C264.855 94.574 263.81 94.1418 262.721 94.1418C261.632 94.1418 260.587 94.574 259.816 95.3436C259.046 96.1131 258.612 97.157 258.61 98.2461V105.051L258.127 129.715C258.127 132.408 257.057 134.992 255.152 136.896C253.247 138.801 250.664 139.871 247.971 139.871C245.277 139.871 242.694 138.801 240.789 136.896C238.885 134.992 237.815 132.408 237.815 129.715L236.572 105.051V92.4427C236.572 90.656 235.862 88.9425 234.599 87.6791C233.335 86.4158 231.622 85.706 229.835 85.706C228.048 85.706 226.335 86.4158 225.072 87.6791C223.808 88.9425 223.098 90.656 223.098 92.4427V105.051L222.339 129.715C222.341 131.827 221.683 133.887 220.458 135.608C219.233 137.329 217.502 138.624 215.506 139.314C213.51 140.004 211.348 140.054 209.322 139.457C207.296 138.859 205.507 137.645 204.204 135.982C202.598 138.036 200.262 139.391 197.682 139.766C195.102 140.14 192.477 139.506 190.353 137.994V144.741C190.353 147.938 189.083 151.005 186.822 153.266C184.561 155.527 181.494 156.797 178.296 156.797C175.099 156.797 172.032 155.527 169.771 153.266C167.51 151.005 166.24 147.938 166.24 144.741V123.911C166.241 126.235 165.445 128.488 163.985 130.295C162.525 132.103 160.489 133.354 158.217 133.842C155.946 134.329 153.576 134.022 151.503 132.973C149.43 131.923 147.78 130.195 146.828 128.075V144.741C146.828 147.938 145.557 151.005 143.296 153.266C141.035 155.527 137.969 156.797 134.771 156.797C131.574 156.797 128.507 155.527 126.246 153.266C123.985 151.005 122.715 147.938 122.715 144.741V105.051H122.647V144.741C122.647 147.938 121.377 151.005 119.116 153.266C116.855 155.527 113.788 156.797 110.59 156.797C107.393 156.797 104.326 155.527 102.065 153.266C99.8042 151.005 98.534 147.938 98.534 144.741V128.216C97.5558 130.308 95.8931 132.005 93.8206 133.024C91.748 134.044 89.3896 134.327 87.1348 133.825C84.88 133.323 82.8638 132.068 81.4192 130.265C79.9746 128.463 79.188 126.221 79.1894 123.911V105.051H78.1545V138.937C78.1545 142.135 76.8843 145.202 74.6232 147.463C72.3622 149.724 69.2956 150.994 66.098 150.994C62.9004 150.994 59.8338 149.724 57.5728 147.463C55.3117 145.202 54.0415 142.135 54.0415 138.937V123.911C54.0428 125.246 53.7811 126.568 53.2713 127.801C52.7615 129.034 52.0137 130.155 51.0705 131.099C50.1273 132.043 49.0073 132.792 47.7744 133.303C46.5416 133.814 45.2202 134.077 43.8856 134.077C42.5511 134.077 41.2296 133.814 39.9968 133.303C38.764 132.792 37.644 132.043 36.7008 131.099C35.7576 130.155 35.0097 129.034 34.4999 127.801C33.9901 126.568 33.7284 125.246 33.7297 123.911V101.554C48.6245 75.7136 70.1715 54.3366 96.129 39.6469C122.087 24.9573 151.506 17.4917 181.327 18.0269C211.148 18.5621 240.281 27.0785 265.695 42.6901C291.108 58.3018 311.875 80.4382 325.833 106.796V106.796Z" fill="#E6E6E6"/>
<path id="Vector_19" opacity="0.2" d="M110.591 150.994C109.007 150.994 107.439 150.682 105.977 150.076C104.514 149.47 103.185 148.582 102.065 147.463C100.945 146.343 100.057 145.014 99.4515 143.551C98.8457 142.088 98.5339 140.521 98.5341 138.937V145.224C98.5341 148.422 99.8043 151.489 102.065 153.75C104.326 156.011 107.393 157.281 110.591 157.281C113.788 157.281 116.855 156.011 119.116 153.75C121.377 151.489 122.647 148.422 122.647 145.224V138.937C122.647 140.521 122.335 142.089 121.73 143.551C121.124 145.014 120.236 146.343 119.116 147.463C117.996 148.582 116.667 149.471 115.204 150.076C113.742 150.682 112.174 150.994 110.591 150.994Z" fill="black"/>
<path id="Vector_20" opacity="0.2" d="M134.771 150.994C133.188 150.994 131.62 150.682 130.157 150.076C128.694 149.47 127.365 148.582 126.246 147.463C125.126 146.343 124.238 145.014 123.632 143.551C123.026 142.088 122.715 140.521 122.715 138.937V145.224C122.715 148.422 123.985 151.489 126.246 153.75C128.507 156.011 131.574 157.281 134.771 157.281C137.969 157.281 141.035 156.011 143.296 153.75C145.557 151.489 146.828 148.422 146.828 145.224V138.937C146.828 140.521 146.516 142.089 145.91 143.551C145.304 145.014 144.416 146.343 143.297 147.463C142.177 148.582 140.848 149.471 139.385 150.076C137.922 150.682 136.354 150.994 134.771 150.994V150.994Z" fill="black"/>
<path id="Vector_21" opacity="0.2" d="M98.534 122.412C97.5559 124.505 95.8932 126.201 93.8207 127.221C91.7481 128.241 89.3896 128.523 87.1348 128.022C84.8801 127.52 82.8639 126.264 81.4193 124.462C79.9747 122.659 79.1881 120.418 79.1895 118.108V124.395C79.1881 126.705 79.9747 128.946 81.4193 130.749C82.8639 132.551 84.8801 133.807 87.1348 134.309C89.3896 134.81 91.7481 134.528 93.8207 133.508C95.8932 132.488 97.5559 130.792 98.534 128.699V122.412Z" fill="black"/>
<path id="Vector_22" opacity="0.2" d="M122.715 99.2472H122.647V105.534H122.715V99.2472Z" fill="black"/>
<path id="Vector_23" opacity="0.2" d="M54.0416 118.108C54.039 120.8 52.9678 123.38 51.0635 125.283C49.1592 127.185 46.5775 128.254 43.8857 128.254C41.194 128.254 38.6123 127.185 36.708 125.283C34.8037 123.38 33.7325 120.8 33.7299 118.108V124.395C33.7325 127.087 34.8037 129.667 36.708 131.57C38.6123 133.472 41.194 134.541 43.8857 134.541C46.5775 134.541 49.1592 133.472 51.0635 131.57C52.9678 129.667 54.039 127.087 54.0416 124.395V118.108Z" fill="black"/>
<path id="Vector_24" opacity="0.2" d="M79.1895 99.2472H78.1546V105.534H79.1895V99.2472Z" fill="black"/>
<path id="Vector_25" opacity="0.2" d="M66.0981 145.19C64.5148 145.191 62.9469 144.879 61.4841 144.273C60.0213 143.667 58.6922 142.779 57.5726 141.659C56.453 140.54 55.565 139.211 54.9591 137.748C54.3533 136.285 54.0415 134.717 54.0416 133.134V139.421C54.0416 142.619 55.3119 145.685 57.5729 147.946C59.8339 150.207 62.9005 151.477 66.0981 151.477C69.2957 151.477 72.3623 150.207 74.6234 147.946C76.8844 145.685 78.1546 142.619 78.1546 139.421V133.134C78.1548 134.717 77.843 136.285 77.2371 137.748C76.6313 139.211 75.7432 140.54 74.6236 141.659C73.504 142.779 72.1749 143.667 70.7121 144.273C69.2492 144.879 67.6814 145.191 66.0981 145.19V145.19Z" fill="black"/>
<path id="Vector_26" opacity="0.2" d="M178.296 150.994C176.713 150.994 175.145 150.682 173.682 150.076C172.22 149.47 170.891 148.582 169.771 147.463C168.651 146.343 167.763 145.014 167.157 143.551C166.552 142.088 166.24 140.521 166.24 138.937V145.224C166.24 148.422 167.51 151.489 169.771 153.75C172.032 156.011 175.099 157.281 178.296 157.281C181.494 157.281 184.561 156.011 186.822 153.75C189.083 151.489 190.353 148.422 190.353 145.224V138.937C190.353 140.521 190.041 142.089 189.435 143.551C188.83 145.014 187.942 146.343 186.822 147.463C185.702 148.582 184.373 149.471 182.91 150.076C181.448 150.682 179.88 150.994 178.296 150.994Z" fill="black"/>
<path id="Vector_27" opacity="0.2" d="M166.24 118.108C166.241 120.431 165.445 122.685 163.985 124.492C162.525 126.299 160.489 127.551 158.217 128.038C155.946 128.525 153.576 128.219 151.503 127.169C149.43 126.12 147.78 124.391 146.828 122.272V128.559C147.78 130.678 149.43 132.407 151.503 133.456C153.576 134.506 155.946 134.812 158.217 134.325C160.489 133.838 162.525 132.586 163.985 130.779C165.445 128.972 166.241 126.718 166.24 124.395V118.108Z" fill="black"/>
<path id="Vector_28" opacity="0.2" d="M212.183 134.067C210.645 134.067 209.128 133.717 207.745 133.044C206.362 132.37 205.151 131.39 204.204 130.179C202.598 132.232 200.262 133.587 197.682 133.962C195.102 134.337 192.477 133.702 190.353 132.191V138.478C192.477 139.989 195.102 140.624 197.682 140.249C200.262 139.874 202.598 138.519 204.204 136.466C205.507 138.129 207.296 139.343 209.322 139.94C211.348 140.537 213.51 140.488 215.506 139.798C217.502 139.108 219.233 137.812 220.458 136.091C221.683 134.371 222.341 132.311 222.339 130.198L223.098 105.534V99.2472L222.339 123.911C222.339 125.245 222.077 126.566 221.566 127.798C221.056 129.03 220.308 130.15 219.365 131.093C218.422 132.036 217.302 132.784 216.07 133.295C214.838 133.805 213.517 134.068 212.183 134.067Z" fill="black"/>
<path id="Vector_29" opacity="0.2" d="M236.572 86.6394C236.572 84.8527 235.862 83.1392 234.599 81.8758C233.335 80.6124 231.622 79.9027 229.835 79.9027C228.048 79.9027 226.335 80.6124 225.072 81.8758C223.808 83.1392 223.098 84.8527 223.098 86.6394V92.9264C223.098 91.1397 223.808 89.4262 225.072 88.1628C226.335 86.8994 228.048 86.1897 229.835 86.1897C231.622 86.1897 233.335 86.8994 234.599 88.1628C235.862 89.4262 236.572 91.1397 236.572 92.9264V86.6394Z" fill="black"/>
<path id="Vector_30" d="M123.924 87.8823H121.506V100.94H123.924V87.8823Z" fill="#3F3D56"/>
<path id="Vector_31" d="M169.625 80.8699H167.207V93.9274H169.625V80.8699Z" fill="#3F3D56"/>
<path id="Vector_32" d="M111.592 132.133H109.174V145.19H111.592V132.133Z" fill="#3F3D56"/>
<path id="Vector_33" d="M210.361 109.317L208.373 107.941L200.943 118.679L202.932 120.054L210.361 109.317Z" fill="#3F3D56"/>
<path id="Vector_34" d="M82.3158 88.6864L80.8154 90.5827L91.0553 98.6848L92.5557 96.7885L82.3158 88.6864Z" fill="#3F3D56"/>
<path id="Vector_35" d="M224.498 39.8415L222.998 41.7378L233.238 49.8399L234.738 47.9436L224.498 39.8415Z" fill="#3F3D56"/>
<path id="Vector_36" d="M55.717 102.228L54.2166 104.124L64.4565 112.226L65.9569 110.33L55.717 102.228Z" fill="#3F3D56"/>
<path id="Vector_37" d="M132.871 57.1728H130.453V70.2304H132.871V57.1728Z" fill="white"/>
<path id="Vector_38" d="M66.6156 124.395H64.1975V137.453H66.6156V124.395Z" fill="white"/>
<path id="Vector_39" d="M179.781 38.3119H177.363V51.3694H179.781V38.3119Z" fill="white"/>
<path id="Vector_40" d="M193.22 84.0398L191.059 82.9554L185.203 94.6264L187.364 95.7108L193.22 84.0398Z" fill="white"/>
<path id="Vector_41" d="M182.097 132.401L179.936 131.317L174.08 142.988L176.241 144.072L182.097 132.401Z" fill="white"/>
<path id="Vector_42" d="M148.857 105.86L147.253 107.669L157.024 116.332L158.628 114.522L148.857 105.86Z" fill="white"/>
<path id="Vector_43" d="M100.98 49.2771L99.3755 51.0864L109.146 59.7487L110.75 57.9394L100.98 49.2771Z" fill="white"/>
<path id="Vector_44" d="M201.571 28.4817L199.967 30.291L209.738 38.9534L211.342 37.144L201.571 28.4817Z" fill="white"/>
<path id="Vector_45" d="M151.248 80.8699H148.83V93.9274H151.248V80.8699Z" fill="#FF6584"/>
<path id="Vector_46" d="M102.846 101.935L100.751 103.144L107.28 114.453L109.374 113.244L102.846 101.935Z" fill="#FF6584"/>
<path id="Vector_47" d="M155.077 44.8699L152.983 46.0789L159.512 57.3871L161.606 56.1781L155.077 44.8699Z" fill="#FF6584"/>
<path id="Vector_48" d="M124.608 31.8114L122.514 33.0205L129.043 44.3287L131.137 43.1196L124.608 31.8114Z" fill="#FF6584"/>
<path id="Vector_49" d="M211.7 54.7547H209.282V67.8123H211.7V54.7547Z" fill="#FF6584"/>
<path id="Vector_50" d="M72.4189 76.5173H70.0009V89.5749H72.4189V76.5173Z" fill="#FF6584"/>
<path id="Vector_51" opacity="0.2" d="M228.795 457.352C219.657 448.214 214.435 435.879 214.234 422.959C214.033 410.038 218.868 397.546 227.716 388.129C227.324 388.497 226.935 388.873 226.552 389.256C221.93 393.874 218.264 399.357 215.762 405.392C213.259 411.427 211.971 417.896 211.97 424.429C211.968 430.963 213.254 437.432 215.754 443.468C218.253 449.505 221.917 454.989 226.537 459.609C231.157 464.229 236.642 467.893 242.678 470.393C248.714 472.892 255.184 474.178 261.717 474.177C268.25 474.175 274.719 472.887 280.754 470.385C286.789 467.883 292.273 464.216 296.89 459.594C297.274 459.21 297.65 458.822 298.019 458.429C288.601 467.277 276.109 472.113 263.189 471.912C250.268 471.711 237.932 466.489 228.795 457.352V457.352Z" fill="black"/>
</g>
<path id="Vector_52" d="M311.232 439.381L305.382 445.231C304.955 445.659 304.41 445.949 303.817 446.064C303.224 446.179 302.61 446.114 302.054 445.877C301.498 445.64 301.026 445.242 300.699 444.734C300.371 444.227 300.203 443.632 300.216 443.029L299.55 443.695C298.876 444.369 297.961 444.748 297.008 444.748C296.055 444.748 295.141 444.369 294.467 443.695C293.793 443.021 293.414 442.107 293.414 441.154C293.414 440.201 293.793 439.287 294.467 438.613L295.022 438.057C294.438 438.026 293.876 437.826 293.403 437.482C292.93 437.138 292.567 436.665 292.358 436.119C292.149 435.572 292.103 434.978 292.225 434.406C292.347 433.834 292.633 433.31 293.047 432.897L299.163 426.576L300.598 425.142C300.827 424.912 300.956 424.601 300.956 424.276C300.956 423.951 300.827 423.639 300.598 423.409C300.368 423.179 300.056 423.05 299.731 423.05C299.406 423.05 299.094 423.179 298.865 423.409L297.43 424.843L292.129 429.94C291.562 430.508 290.792 430.827 289.989 430.827C289.186 430.827 288.416 430.508 287.848 429.94C287.28 429.373 286.961 428.603 286.961 427.8C286.961 426.997 287.28 426.227 287.848 425.659L292.785 420.198L295.442 417.541C295.816 417.163 296.026 416.653 296.024 416.122C296.023 415.591 295.812 415.082 295.436 414.707C295.061 414.331 294.552 414.12 294.021 414.118C293.49 414.117 292.98 414.327 292.602 414.7L289.945 417.358L284.586 422.397C282.182 420.972 279.615 419.842 276.94 419.033C276.497 418.589 276.202 418.019 276.098 417.4L274.676 418.822C274.002 419.496 273.088 419.875 272.135 419.875C271.182 419.875 270.268 419.496 269.594 418.822C268.92 418.148 268.541 417.234 268.541 416.281C268.541 415.327 268.92 414.413 269.594 413.739L273.984 409.349C273.495 409.839 272.852 410.146 272.163 410.219C271.474 410.292 270.781 410.127 270.2 409.751C269.618 409.375 269.183 408.81 268.968 408.152C268.752 407.494 268.768 406.782 269.015 406.134L265.502 409.647C264.828 410.321 263.913 410.7 262.96 410.7C262.007 410.7 261.093 410.321 260.419 409.647C259.745 408.973 259.366 408.059 259.366 407.106C259.366 406.153 259.745 405.239 260.419 404.565L268.785 396.198L268.771 396.184L260.405 404.55C259.731 405.224 258.816 405.603 257.863 405.603C256.91 405.603 255.996 405.224 255.322 404.55C254.648 403.876 254.269 402.962 254.269 402.009C254.269 401.056 254.648 400.142 255.322 399.468L258.805 395.984C258.158 396.219 257.45 396.226 256.798 396.004C256.146 395.783 255.589 395.345 255.22 394.764C254.85 394.183 254.69 393.493 254.766 392.809C254.841 392.124 255.148 391.486 255.635 390.999L259.61 387.024L259.392 386.806L252.249 393.949C251.575 394.623 250.661 395.001 249.708 395.001C248.755 395.001 247.841 394.623 247.167 393.949C246.493 393.275 246.114 392.36 246.114 391.407C246.114 390.454 246.493 389.54 247.167 388.866L250.334 385.699C249.766 386.266 248.996 386.585 248.193 386.585C247.39 386.585 246.62 386.266 246.052 385.699C245.485 385.131 245.166 384.361 245.166 383.558C245.166 382.755 245.485 381.985 246.052 381.417L250.765 376.704C259.352 374.397 268.399 374.433 276.967 376.808C285.535 379.183 293.31 383.811 299.483 390.21C305.656 396.608 310.002 404.544 312.068 413.192C314.134 421.84 313.846 430.883 311.232 439.381V439.381Z" fill="#E6E6E6"/>
<path id="Vector_53" opacity="0.2" d="M256.545 403.327C256.211 402.993 255.947 402.597 255.766 402.161C255.585 401.725 255.492 401.258 255.492 400.786C255.492 400.314 255.585 399.846 255.766 399.41C255.947 398.974 256.211 398.578 256.545 398.244L255.22 399.57C254.546 400.244 254.167 401.158 254.167 402.111C254.167 403.064 254.546 403.978 255.22 404.652C255.894 405.326 256.808 405.705 257.761 405.705C258.714 405.705 259.629 405.326 260.303 404.652L261.628 403.327C261.294 403.661 260.898 403.926 260.462 404.106C260.026 404.287 259.558 404.38 259.086 404.38C258.615 404.38 258.147 404.287 257.711 404.106C257.275 403.926 256.879 403.661 256.545 403.327V403.327Z" fill="black"/>
<path id="Vector_54" opacity="0.2" d="M261.642 408.424C261.308 408.09 261.044 407.694 260.863 407.258C260.682 406.822 260.589 406.355 260.589 405.883C260.589 405.411 260.682 404.943 260.863 404.507C261.044 404.071 261.308 403.675 261.642 403.341L260.317 404.667C259.983 405 259.718 405.396 259.538 405.833C259.357 406.269 259.264 406.736 259.264 407.208C259.264 407.68 259.357 408.147 259.538 408.583C259.718 409.019 259.983 409.416 260.317 409.749C260.651 410.083 261.047 410.348 261.483 410.528C261.919 410.709 262.386 410.802 262.858 410.802C263.33 410.802 263.798 410.709 264.234 410.528C264.67 410.348 265.066 410.083 265.4 409.749L266.725 408.424C266.391 408.758 265.995 409.023 265.559 409.203C265.123 409.384 264.655 409.477 264.183 409.477C263.711 409.477 263.244 409.384 262.808 409.203C262.372 409.023 261.976 408.758 261.642 408.424V408.424Z" fill="black"/>
<path id="Vector_55" opacity="0.2" d="M260.028 394.761C259.381 394.996 258.673 395.003 258.021 394.781C257.369 394.559 256.813 394.122 256.443 393.541C256.074 392.96 255.913 392.27 255.989 391.585C256.064 390.901 256.371 390.263 256.858 389.776L255.533 391.101C255.046 391.588 254.739 392.226 254.664 392.911C254.588 393.595 254.748 394.285 255.118 394.866C255.488 395.447 256.044 395.884 256.696 396.106C257.348 396.328 258.056 396.321 258.703 396.086L260.028 394.761Z" fill="black"/>
<path id="Vector_56" opacity="0.2" d="M269.994 394.961L268.669 396.286L268.683 396.3L270.008 394.975L269.994 394.961Z" fill="black"/>
<path id="Vector_57" opacity="0.2" d="M251.557 384.475C251.276 384.756 250.942 384.979 250.575 385.132C250.208 385.284 249.814 385.362 249.416 385.362C249.019 385.362 248.625 385.284 248.258 385.132C247.891 384.979 247.557 384.756 247.276 384.475C246.995 384.194 246.772 383.86 246.619 383.493C246.467 383.126 246.389 382.732 246.389 382.335C246.389 381.937 246.467 381.543 246.619 381.176C246.772 380.809 246.995 380.475 247.276 380.194L245.951 381.519C245.383 382.087 245.064 382.857 245.064 383.66C245.064 384.463 245.383 385.233 245.951 385.801C246.518 386.368 247.288 386.687 248.091 386.687C248.894 386.687 249.664 386.368 250.232 385.801L251.557 384.475Z" fill="black"/>
<path id="Vector_58" opacity="0.2" d="M260.616 385.582L259.29 386.908L259.509 387.126L260.834 385.801L260.616 385.582Z" fill="black"/>
<path id="Vector_59" opacity="0.2" d="M248.39 392.725C248.056 392.392 247.791 391.995 247.611 391.559C247.43 391.123 247.337 390.656 247.337 390.184C247.337 389.712 247.43 389.245 247.611 388.809C247.791 388.372 248.056 387.976 248.39 387.643L247.065 388.968C246.731 389.302 246.466 389.698 246.286 390.134C246.105 390.57 246.012 391.037 246.012 391.509C246.012 391.981 246.105 392.448 246.286 392.885C246.466 393.321 246.731 393.717 247.065 394.051C247.398 394.384 247.795 394.649 248.231 394.83C248.667 395.01 249.134 395.103 249.606 395.103C250.078 395.103 250.545 395.01 250.981 394.83C251.418 394.649 251.814 394.384 252.147 394.051L253.473 392.725C253.139 393.059 252.743 393.324 252.307 393.504C251.871 393.685 251.403 393.778 250.931 393.778C250.459 393.778 249.992 393.685 249.556 393.504C249.12 393.324 248.724 393.059 248.39 392.725V392.725Z" fill="black"/>
<path id="Vector_60" opacity="0.2" d="M270.817 417.599C270.483 417.265 270.218 416.869 270.038 416.433C269.857 415.997 269.764 415.529 269.764 415.057C269.764 414.585 269.857 414.118 270.038 413.682C270.218 413.246 270.483 412.85 270.817 412.516L269.492 413.841C269.158 414.175 268.893 414.571 268.712 415.007C268.532 415.443 268.439 415.911 268.439 416.383C268.439 416.854 268.532 417.322 268.712 417.758C268.893 418.194 269.158 418.59 269.492 418.924C269.825 419.258 270.221 419.522 270.658 419.703C271.094 419.884 271.561 419.977 272.033 419.977C272.505 419.977 272.972 419.884 273.408 419.703C273.844 419.522 274.24 419.258 274.574 418.924L275.899 417.599C275.566 417.932 275.17 418.197 274.733 418.378C274.297 418.558 273.83 418.651 273.358 418.651C272.886 418.651 272.419 418.558 271.983 418.378C271.547 418.197 271.15 417.932 270.817 417.599Z" fill="black"/>
<path id="Vector_61" opacity="0.2" d="M301.821 423.919C302.051 423.689 302.18 423.377 302.18 423.052C302.18 422.727 302.051 422.416 301.821 422.186C301.591 421.956 301.279 421.827 300.954 421.827C300.629 421.827 300.318 421.956 300.088 422.186L298.763 423.511C298.992 423.281 299.304 423.152 299.629 423.152C299.954 423.152 300.266 423.281 300.496 423.511C300.725 423.741 300.854 424.053 300.854 424.378C300.854 424.703 300.725 425.014 300.496 425.244L301.821 423.919Z" fill="black"/>
<path id="Vector_62" opacity="0.2" d="M275.207 408.125C274.718 408.615 274.075 408.922 273.386 408.996C272.698 409.069 272.005 408.904 271.423 408.527C270.842 408.151 270.407 407.587 270.191 406.929C269.975 406.271 269.992 405.559 270.238 404.911L268.913 406.236C268.666 406.884 268.65 407.596 268.866 408.254C269.081 408.912 269.516 409.477 270.098 409.853C270.679 410.229 271.372 410.394 272.061 410.321C272.75 410.248 273.393 409.941 273.882 409.451L275.207 408.125Z" fill="black"/>
<path id="Vector_63" opacity="0.2" d="M289.071 428.717C288.79 428.436 288.567 428.102 288.415 427.735C288.263 427.368 288.184 426.974 288.184 426.576C288.184 426.179 288.263 425.785 288.415 425.418C288.567 425.051 288.79 424.717 289.071 424.436L294.008 418.975L292.683 420.3L287.746 425.761C287.465 426.042 287.242 426.376 287.09 426.743C286.937 427.11 286.859 427.504 286.859 427.902C286.859 428.299 286.937 428.693 287.09 429.06C287.242 429.428 287.465 429.761 287.746 430.042C288.027 430.324 288.361 430.547 288.728 430.699C289.095 430.851 289.489 430.929 289.887 430.929C290.284 430.929 290.678 430.851 291.045 430.699C291.412 430.547 291.746 430.324 292.027 430.042L297.328 424.945L298.653 423.62L293.353 428.717C293.071 428.998 292.738 429.221 292.37 429.374C292.003 429.526 291.609 429.604 291.212 429.604C290.814 429.604 290.421 429.526 290.053 429.374C289.686 429.221 289.352 428.998 289.071 428.717V428.717Z" fill="black"/>
<path id="Vector_64" opacity="0.2" d="M302.323 444.008C302.035 443.72 301.808 443.376 301.656 442.997C301.504 442.619 301.43 442.213 301.439 441.805L300.773 442.472C300.439 442.806 300.043 443.07 299.607 443.251C299.171 443.432 298.703 443.525 298.231 443.525C297.759 443.525 297.292 443.432 296.856 443.251C296.42 443.07 296.024 442.806 295.69 442.472C295.356 442.138 295.092 441.742 294.911 441.306C294.73 440.87 294.637 440.403 294.637 439.931C294.637 439.459 294.73 438.991 294.911 438.555C295.092 438.119 295.356 437.723 295.69 437.389L296.246 436.834C295.662 436.803 295.099 436.603 294.626 436.259C294.154 435.915 293.791 435.441 293.582 434.895C293.373 434.349 293.326 433.754 293.448 433.182C293.571 432.611 293.856 432.086 294.27 431.674L300.386 425.353L299.061 426.678L292.945 432.999C292.531 433.412 292.245 433.936 292.123 434.508C292.001 435.079 292.047 435.674 292.256 436.221C292.465 436.767 292.828 437.24 293.301 437.584C293.774 437.928 294.336 438.128 294.92 438.159L294.365 438.714C293.691 439.388 293.312 440.303 293.312 441.256C293.312 442.209 293.691 443.123 294.365 443.797C295.039 444.471 295.953 444.85 296.906 444.85C297.859 444.85 298.774 444.471 299.448 443.797L300.114 443.131C300.101 443.735 300.269 444.329 300.597 444.836C300.924 445.344 301.396 445.742 301.952 445.979C302.508 446.216 303.122 446.281 303.715 446.166C304.308 446.051 304.853 445.761 305.28 445.333L306.605 444.008C306.324 444.289 305.99 444.512 305.623 444.665C305.255 444.817 304.862 444.895 304.464 444.895C304.066 444.895 303.673 444.817 303.305 444.665C302.938 444.512 302.604 444.289 302.323 444.008V444.008Z" fill="black"/>
<path id="Vector_65" opacity="0.2" d="M281.528 421.174C281.583 420.719 281.534 420.257 281.385 419.823C281.235 419.39 280.989 418.996 280.665 418.672C280.341 418.348 279.947 418.102 279.514 417.952C279.08 417.803 278.619 417.754 278.164 417.81C277.72 417.366 277.426 416.795 277.322 416.177L275.996 417.502C277.118 417.816 278.119 418.461 278.869 419.353C279.619 420.244 280.084 421.34 280.202 422.499C280.483 422.78 280.817 423.003 281.185 423.155C281.552 423.308 281.946 423.386 282.343 423.386C282.741 423.386 283.134 423.308 283.502 423.155C283.869 423.003 284.203 422.78 284.484 422.499L289.843 417.46L291.168 416.135L285.809 421.174C285.528 421.455 285.194 421.678 284.827 421.83C284.46 421.982 284.066 422.061 283.668 422.061C283.271 422.061 282.877 421.982 282.51 421.83C282.142 421.678 281.809 421.455 281.528 421.174V421.174Z" fill="black"/>
<path id="Vector_66" opacity="0.2" d="M296.666 416.317C296.853 416.131 297.002 415.91 297.104 415.666C297.206 415.422 297.259 415.16 297.26 414.896C297.26 414.631 297.208 414.369 297.108 414.125C297.007 413.88 296.858 413.658 296.671 413.471C296.484 413.284 296.262 413.136 296.018 413.035C295.774 412.934 295.512 412.883 295.247 412.883C294.983 412.884 294.721 412.937 294.477 413.039C294.233 413.14 294.012 413.29 293.826 413.477L292.5 414.802C292.687 414.615 292.908 414.466 293.152 414.364C293.396 414.262 293.658 414.209 293.922 414.209C294.186 414.208 294.448 414.26 294.693 414.361C294.937 414.461 295.159 414.61 295.346 414.797C295.533 414.984 295.681 415.206 295.782 415.45C295.883 415.694 295.935 415.956 295.934 416.221C295.934 416.485 295.881 416.747 295.779 416.991C295.677 417.235 295.528 417.456 295.34 417.642L296.666 416.317Z" fill="black"/>
<path id="Vector_67" d="M272.659 392.834L272.149 392.325L269.397 395.077L269.906 395.587L272.659 392.834Z" fill="#3F3D56"/>
<path id="Vector_68" d="M283.77 400.99L283.26 400.48L280.508 403.232L281.018 403.742L283.77 400.99Z" fill="#3F3D56"/>
<path id="Vector_69" d="M294.77 394.99L294.26 394.48L291.508 397.232L292.018 397.742L294.77 394.99Z" fill="#3F3D56"/>
<path id="Vector_70" d="M260.732 399.562L260.222 399.053L257.47 401.805L257.979 402.315L260.732 399.562Z" fill="#3F3D56"/>
<path id="Vector_71" d="M286.361 415.573L286.232 414.864L282.403 415.561L282.532 416.27L286.361 415.573Z" fill="#3F3D56"/>
<path id="Vector_72" d="M302.361 408.573L302.232 407.864L298.403 408.561L298.532 409.27L302.361 408.573Z" fill="#3F3D56"/>
<path id="Vector_73" d="M263.719 384.233L263.003 384.317L263.453 388.183L264.169 388.1L263.719 384.233Z" fill="#3F3D56"/>
<path id="Vector_74" d="M255.258 381.481L254.542 381.565L254.992 385.431L255.708 385.347L255.258 381.481Z" fill="#3F3D56"/>
<path id="Vector_75" d="M281.018 388.247L280.508 387.737L277.756 390.49L278.265 390.999L281.018 388.247Z" fill="white"/>
<path id="Vector_76" d="M302.018 402.247L301.508 401.737L298.756 404.49L299.265 404.999L302.018 402.247Z" fill="white"/>
<path id="Vector_77" d="M310.018 422.247L309.508 421.737L306.756 424.49L307.265 424.999L310.018 422.247Z" fill="white"/>
<path id="Vector_78" d="M252.882 388.451L252.373 387.941L249.62 390.694L250.13 391.203L252.882 388.451Z" fill="white"/>
<path id="Vector_79" d="M288.076 406.631L287.849 405.947L284.154 407.173L284.381 407.857L288.076 406.631Z" fill="white"/>
<path id="Vector_80" d="M275.537 414.481L275.31 413.796L271.616 415.022L271.843 415.706L275.537 414.481Z" fill="white"/>
<path id="Vector_81" d="M274.125 401.879L273.406 401.923L273.639 405.808L274.359 405.765L274.125 401.879Z" fill="white"/>
<path id="Vector_82" d="M275.96 379.861L275.24 379.904L275.474 383.789L276.194 383.746L275.96 379.861Z" fill="white"/>
<path id="Vector_83" d="M279.897 397.116L279.387 396.606L276.634 399.359L277.144 399.868L279.897 397.116Z" fill="#FF6584"/>
<path id="Vector_84" d="M303.897 431.116L303.387 430.606L300.634 433.359L301.144 433.868L303.897 431.116Z" fill="#FF6584"/>
<path id="Vector_85" d="M307.897 414.116L307.387 413.606L304.634 416.359L305.144 416.868L307.897 414.116Z" fill="#FF6584"/>
<path id="Vector_86" d="M265.254 391.354L264.557 391.167L263.55 394.927L264.246 395.113L265.254 391.354Z" fill="#FF6584"/>
<path id="Vector_87" d="M288.292 390.334L287.596 390.148L286.588 393.907L287.284 394.094L288.292 390.334Z" fill="#FF6584"/>
<path id="Vector_88" d="M284.622 381.16L283.926 380.973L282.918 384.733L283.615 384.919L284.622 381.16Z" fill="#FF6584"/>
<path id="Vector_89" d="M264.198 379.582L263.688 379.073L260.936 381.825L261.445 382.335L264.198 379.582Z" fill="#FF6584"/>
<path id="Vector_90" d="M308.533 416.073L307.99 415.531L305.062 418.46L305.604 419.002L308.533 416.073Z" fill="#3F3D56"/>
</g>
<g id="Donut-tree-right">
<g id="group_2">
<path id="Vector_91" d="M774.65 206.943C774.65 204.821 773.807 202.787 772.307 201.286C770.807 199.786 768.772 198.943 766.65 198.943C764.528 198.943 762.493 199.786 760.993 201.286C759.493 202.787 758.65 204.821 758.65 206.943V565.59C758.65 567.712 759.493 569.747 760.993 571.247C762.493 572.747 764.528 573.59 766.65 573.59C768.772 573.59 770.807 572.747 772.307 571.247C773.807 569.747 774.65 567.712 774.65 565.59V209.267" fill="#3F3D56"/>
<path id="Vector_92" d="M876.7 225.977C862.646 199.471 839.199 179.17 810.956 169.052C782.712 158.934 751.708 159.728 724.02 171.279C696.332 182.83 673.955 204.306 661.277 231.496C648.598 258.686 646.531 289.631 655.48 318.267H670.41C673.41 318.267 675.87 321.607 675.87 325.697H678.61C681.62 325.697 684.08 329.037 684.08 333.127C684.08 337.207 681.62 340.557 678.61 340.557H675.87C675.864 341.178 675.8 341.797 675.68 342.407H688.18C691.19 342.407 693.65 345.757 693.65 349.837C693.65 353.927 691.19 357.267 688.18 357.267H676.24C694.931 380.694 721.691 396.304 751.283 401.042C780.876 405.781 811.172 399.306 836.243 382.886C861.314 366.466 879.356 341.282 886.839 312.261C894.321 283.241 890.706 252.472 876.7 225.977H876.7ZM794.84 325.717C787.359 329.941 778.911 332.153 770.32 332.137C768.6 332.136 766.881 332.049 765.17 331.877C753.342 330.641 742.346 325.217 734.167 316.585C725.987 307.953 721.163 296.681 720.565 284.804C719.967 272.927 723.635 261.227 730.907 251.817C738.178 242.407 748.574 235.907 760.218 233.49C771.861 231.072 783.986 232.897 794.402 238.635C804.818 244.372 812.84 253.645 817.02 264.778C821.199 275.911 821.261 288.172 817.194 299.347C813.126 310.522 805.198 319.875 794.84 325.717V325.717Z" fill="#FF6347"/>
<path id="Vector_93" opacity="0.2" d="M770.324 397.592C753.344 397.611 736.554 394.026 721.062 387.074C705.57 380.123 691.729 369.963 680.454 357.267H676.236C691.788 376.778 713.021 390.972 736.996 397.884C760.971 404.796 786.502 404.083 810.054 395.845C833.606 387.606 854.015 372.25 868.454 351.901C882.894 331.552 890.65 307.218 890.65 282.267C890.65 281.514 890.629 280.767 890.615 280.018C889.897 311.445 876.908 341.344 854.427 363.317C831.947 385.29 801.76 397.592 770.324 397.592Z" fill="black"/>
<path id="Vector_94" opacity="0.2" d="M770.32 222.397C758.479 222.399 746.905 225.912 737.061 232.492C727.217 239.071 719.544 248.422 715.014 259.362C710.485 270.302 709.3 282.34 711.612 293.953C713.923 305.566 719.626 316.233 727.999 324.605C736.372 332.977 747.04 338.678 758.654 340.987C770.267 343.296 782.304 342.11 793.244 337.578C804.183 333.047 813.533 325.373 820.111 315.528C826.689 305.682 830.2 294.107 830.2 282.267C830.181 266.392 823.866 251.173 812.64 239.949C801.414 228.725 786.194 222.413 770.32 222.397V222.397ZM794.84 325.717C787.359 329.941 778.911 332.153 770.32 332.137C768.6 332.136 766.881 332.049 765.17 331.877C753.342 330.641 742.346 325.217 734.167 316.585C725.987 307.953 721.163 296.681 720.565 284.804C719.967 272.927 723.635 261.227 730.906 251.817C738.178 242.407 748.574 235.907 760.218 233.49C771.861 231.072 783.986 232.897 794.402 238.635C804.818 244.372 812.84 253.645 817.02 264.778C821.199 275.911 821.261 288.172 817.194 299.347C813.126 310.522 805.198 319.875 794.84 325.717Z" fill="black"/>
</g>
<g id="right-topping">
<path id="Vector_95" d="M876.657 226.038V246.054C876.658 247.515 876.222 248.943 875.404 250.154C874.586 251.366 873.424 252.304 872.068 252.849C870.712 253.395 869.224 253.521 867.796 253.213C866.367 252.905 865.063 252.177 864.053 251.121V253.402C864.053 255.708 863.136 257.92 861.506 259.55C859.875 261.181 857.664 262.097 855.358 262.097C853.052 262.097 850.84 261.181 849.21 259.55C847.579 257.92 846.663 255.708 846.663 253.402V251.501C845.611 252.447 844.308 253.068 842.91 253.289C841.513 253.509 840.082 253.319 838.79 252.743C837.498 252.166 836.401 251.228 835.632 250.04C834.863 248.853 834.454 247.468 834.456 246.054L834.107 224.779V219.871C834.107 219.085 833.795 218.331 833.239 217.775C832.683 217.219 831.929 216.907 831.143 216.907C830.356 216.907 829.602 217.219 829.046 217.775C828.49 218.331 828.178 219.085 828.178 219.871V224.779L827.829 242.566C827.829 244.508 827.058 246.371 825.684 247.745C824.31 249.118 822.448 249.89 820.505 249.89C818.563 249.89 816.7 249.118 815.326 247.745C813.953 246.371 813.181 244.508 813.181 242.566L812.285 224.779V215.686C812.285 214.398 811.773 213.162 810.862 212.251C809.95 211.34 808.715 210.828 807.426 210.828C806.138 210.828 804.902 211.34 803.991 212.251C803.08 213.162 802.568 214.398 802.568 215.686V224.779L802.02 242.566C802.021 244.089 801.547 245.575 800.664 246.816C799.78 248.057 798.532 248.991 797.092 249.489C795.653 249.986 794.093 250.022 792.632 249.591C791.171 249.161 789.881 248.285 788.941 247.086C787.783 248.567 786.098 249.544 784.238 249.814C782.377 250.084 780.484 249.627 778.953 248.537V253.402C778.953 255.708 778.037 257.92 776.406 259.55C774.775 261.181 772.564 262.097 770.258 262.097C767.952 262.097 765.74 261.181 764.11 259.55C762.479 257.92 761.563 255.708 761.563 253.402V238.381C761.564 240.056 760.99 241.681 759.937 242.985C758.884 244.288 757.415 245.191 755.777 245.542C754.139 245.893 752.43 245.672 750.935 244.915C749.44 244.159 748.25 242.912 747.563 241.384V253.402C747.561 255.707 746.644 257.916 745.013 259.544C743.383 261.173 741.173 262.088 738.868 262.088C736.564 262.088 734.354 261.173 732.724 259.544C731.093 257.916 730.176 255.707 730.174 253.402V224.779H730.125V253.402C730.125 255.708 729.209 257.92 727.578 259.55C725.948 261.181 723.736 262.097 721.43 262.097C719.124 262.097 716.912 261.181 715.282 259.55C713.651 257.92 712.735 255.708 712.735 253.402V241.485C712.03 242.994 710.831 244.217 709.336 244.953C707.841 245.688 706.14 245.892 704.514 245.53C702.888 245.168 701.434 244.263 700.392 242.963C699.351 241.663 698.783 240.047 698.784 238.381V224.779H698.038V249.217C698.038 251.523 697.122 253.735 695.491 255.365C693.861 256.996 691.649 257.912 689.343 257.912C687.037 257.912 684.826 256.996 683.195 255.365C681.564 253.735 680.648 251.523 680.648 249.217V238.381C680.648 240.323 679.877 242.186 678.503 243.56C677.13 244.933 675.267 245.705 673.324 245.705C671.382 245.705 669.519 244.933 668.145 243.56C666.772 242.186 666 240.323 666 238.381V222.257C676.742 203.622 692.281 188.205 711.001 177.611C729.721 167.017 750.937 161.633 772.444 162.019C793.95 162.405 814.96 168.547 833.287 179.806C851.615 191.065 866.591 207.029 876.657 226.038V226.038Z" fill="#E6E6E6"/>
<path id="Vector_96" opacity="0.2" d="M721.43 257.912C720.288 257.912 719.157 257.687 718.103 257.25C717.048 256.813 716.089 256.173 715.282 255.365C714.474 254.558 713.834 253.599 713.397 252.544C712.96 251.489 712.735 250.359 712.735 249.217V253.751C712.735 256.057 713.651 258.268 715.282 259.899C716.912 261.53 719.124 262.446 721.43 262.446C723.736 262.446 725.948 261.53 727.578 259.899C729.209 258.268 730.125 256.057 730.125 253.751V249.217C730.125 250.359 729.9 251.489 729.463 252.544C729.026 253.599 728.386 254.558 727.578 255.365C726.771 256.173 725.812 256.813 724.758 257.25C723.703 257.687 722.572 257.912 721.43 257.912V257.912Z" fill="black"/>
<path id="Vector_97" opacity="0.2" d="M738.869 257.912C737.727 257.912 736.596 257.687 735.541 257.25C734.486 256.813 733.528 256.173 732.72 255.365C731.913 254.558 731.272 253.599 730.835 252.544C730.398 251.489 730.174 250.359 730.174 249.217V253.751C730.174 256.057 731.09 258.268 732.72 259.899C734.351 261.53 736.563 262.446 738.869 262.446C741.175 262.446 743.386 261.53 745.017 259.899C746.647 258.268 747.563 256.057 747.563 253.751V249.217C747.564 250.359 747.339 251.489 746.902 252.544C746.465 253.599 745.824 254.558 745.017 255.365C744.209 256.173 743.251 256.813 742.196 257.25C741.141 257.687 740.01 257.912 738.869 257.912Z" fill="black"/>
<path id="Vector_98" opacity="0.2" d="M712.735 237.299C712.03 238.809 710.831 240.032 709.336 240.767C707.841 241.503 706.14 241.707 704.514 241.345C702.888 240.983 701.434 240.077 700.393 238.777C699.351 237.478 698.783 235.861 698.784 234.195V238.729C698.783 240.395 699.351 242.012 700.393 243.311C701.434 244.611 702.888 245.517 704.514 245.879C706.14 246.241 707.841 246.037 709.336 245.301C710.831 244.566 712.03 243.343 712.735 241.833V237.299Z" fill="black"/>
<path id="Vector_99" opacity="0.2" d="M730.174 220.593H730.125V225.127H730.174V220.593Z" fill="black"/>
<path id="Vector_100" opacity="0.2" d="M680.648 234.195C680.648 236.138 679.877 238.001 678.503 239.374C677.13 240.748 675.267 241.52 673.324 241.52C671.382 241.52 669.519 240.748 668.145 239.374C666.772 238.001 666 236.138 666 234.195V238.729C666 240.672 666.772 242.535 668.145 243.908C669.519 245.282 671.382 246.053 673.324 246.053C675.267 246.053 677.13 245.282 678.503 243.908C679.877 242.535 680.648 240.672 680.648 238.729V234.195Z" fill="black"/>
<path id="Vector_101" opacity="0.2" d="M698.784 220.593H698.038V225.127H698.784V220.593Z" fill="black"/>
<path id="Vector_102" opacity="0.2" d="M689.343 253.726C688.201 253.727 687.071 253.502 686.016 253.065C684.961 252.628 684.002 251.987 683.195 251.18C682.387 250.373 681.747 249.414 681.31 248.359C680.873 247.304 680.648 246.173 680.648 245.032V249.566C680.648 251.872 681.564 254.083 683.195 255.714C684.826 257.344 687.037 258.26 689.343 258.26C691.649 258.26 693.861 257.344 695.491 255.714C697.122 254.083 698.038 251.872 698.038 249.566V245.032C698.038 246.173 697.813 247.304 697.376 248.359C696.939 249.414 696.299 250.373 695.492 251.18C694.684 251.987 693.726 252.628 692.671 253.065C691.616 253.502 690.485 253.727 689.343 253.726V253.726Z" fill="black"/>
<path id="Vector_103" opacity="0.2" d="M770.258 257.912C769.116 257.912 767.985 257.687 766.93 257.25C765.875 256.813 764.917 256.173 764.109 255.365C763.302 254.558 762.662 253.599 762.225 252.544C761.788 251.489 761.563 250.359 761.563 249.217V253.751C761.563 256.057 762.479 258.268 764.11 259.899C765.74 261.53 767.952 262.446 770.258 262.446C772.564 262.446 774.775 261.53 776.406 259.899C778.037 258.268 778.953 256.057 778.953 253.751V249.217C778.953 250.359 778.728 251.489 778.291 252.544C777.854 253.599 777.214 254.558 776.406 255.365C775.599 256.173 774.64 256.813 773.585 257.25C772.53 257.687 771.4 257.912 770.258 257.912Z" fill="black"/>
<path id="Vector_104" opacity="0.2" d="M834.107 215.686C834.107 214.9 833.795 214.146 833.239 213.59C832.683 213.034 831.929 212.722 831.143 212.722C830.356 212.722 829.602 213.034 829.046 213.59C828.49 214.146 828.178 214.9 828.178 215.686V220.22C828.178 219.434 828.49 218.68 829.046 218.124C829.602 217.568 830.356 217.256 831.143 217.256C831.929 217.256 832.683 217.568 833.239 218.124C833.795 218.68 834.107 219.434 834.107 220.22V215.686Z" fill="black"/>
<path id="Vector_105" opacity="0.2" d="M761.563 234.195C761.564 235.871 760.99 237.496 759.937 238.799C758.884 240.103 757.415 241.005 755.777 241.357C754.139 241.708 752.43 241.487 750.935 240.73C749.44 239.973 748.25 238.727 747.563 237.198V241.732C748.25 243.261 749.44 244.507 750.935 245.264C752.43 246.021 754.139 246.242 755.777 245.891C757.415 245.539 758.884 244.637 759.937 243.333C760.99 242.03 761.564 240.405 761.563 238.729V234.195Z" fill="black"/>
<path id="Vector_106" opacity="0.2" d="M820.505 245.705C819.543 245.705 818.591 245.516 817.702 245.147C816.813 244.779 816.006 244.24 815.326 243.56C814.646 242.88 814.106 242.072 813.738 241.184C813.37 240.295 813.181 239.342 813.181 238.381L812.285 220.593V225.127L813.181 242.915C813.181 244.857 813.953 246.72 815.326 248.094C816.7 249.467 818.563 250.239 820.505 250.239C822.448 250.239 824.311 249.467 825.684 248.094C827.058 246.72 827.829 244.857 827.829 242.915L828.178 225.127V220.593L827.829 238.381C827.829 239.342 827.64 240.295 827.272 241.184C826.904 242.072 826.364 242.88 825.684 243.56C825.004 244.24 824.197 244.779 823.308 245.147C822.419 245.516 821.467 245.705 820.505 245.705V245.705Z" fill="black"/>
<path id="Vector_107" opacity="0.2" d="M869.333 249.192C868.346 249.193 867.369 248.993 866.462 248.605C865.554 248.217 864.734 247.649 864.053 246.936V249.217C864.053 251.523 863.136 253.734 861.506 255.365C859.875 256.996 857.664 257.912 855.358 257.912C853.052 257.912 850.84 256.996 849.21 255.365C847.579 253.734 846.663 251.523 846.663 249.217V247.316C845.611 248.262 844.308 248.883 842.91 249.103C841.513 249.324 840.082 249.134 838.79 248.558C837.498 247.981 836.401 247.042 835.632 245.855C834.863 244.668 834.454 243.283 834.456 241.868L834.107 220.593V225.127L834.456 246.402C834.454 247.817 834.863 249.202 835.632 250.389C836.401 251.576 837.498 252.515 838.79 253.092C840.082 253.668 841.513 253.858 842.91 253.637C844.308 253.417 845.611 252.796 846.663 251.85V253.751C846.663 256.057 847.579 258.268 849.21 259.899C850.84 261.53 853.052 262.446 855.358 262.446C857.664 262.446 859.875 261.53 861.506 259.899C863.136 258.268 864.053 256.057 864.053 253.751V251.47C865.063 252.525 866.367 253.254 867.796 253.562C869.224 253.87 870.712 253.743 872.068 253.198C873.424 252.653 874.586 251.714 875.404 250.503C876.222 249.292 876.658 247.864 876.657 246.402V241.868C876.657 242.83 876.468 243.783 876.1 244.671C875.732 245.56 875.192 246.367 874.512 247.048C873.832 247.728 873.025 248.267 872.136 248.635C871.247 249.003 870.295 249.193 869.333 249.192V249.192Z" fill="black"/>
<path id="Vector_108" opacity="0.2" d="M794.696 245.705C793.587 245.705 792.492 245.452 791.495 244.967C790.498 244.481 789.625 243.774 788.941 242.901C787.783 244.381 786.098 245.359 784.238 245.629C782.377 245.899 780.484 245.442 778.953 244.352V248.886C780.484 249.976 782.377 250.433 784.238 250.163C786.098 249.893 787.783 248.915 788.941 247.435C789.881 248.634 791.171 249.509 792.632 249.94C794.094 250.371 795.653 250.335 797.092 249.837C798.532 249.34 799.781 248.405 800.664 247.164C801.547 245.924 802.021 244.438 802.02 242.915L802.568 225.127V220.593L802.02 238.381C802.02 239.342 801.831 240.295 801.463 241.184C801.095 242.072 800.556 242.88 799.875 243.56C799.195 244.24 798.388 244.779 797.499 245.147C796.61 245.516 795.658 245.705 794.696 245.705V245.705Z" fill="black"/>
<path id="Vector_109" opacity="0.2" d="M812.285 211.501C812.285 210.212 811.773 208.977 810.862 208.066C809.951 207.154 808.715 206.643 807.426 206.643C806.138 206.643 804.902 207.154 803.991 208.066C803.08 208.977 802.568 210.212 802.568 211.501V216.035C802.568 214.746 803.08 213.511 803.991 212.6C804.902 211.688 806.138 211.177 807.426 211.177C808.715 211.177 809.951 211.688 810.862 212.6C811.773 213.511 812.285 214.746 812.285 216.035V211.501Z" fill="black"/>
<path id="Vector_110" d="M731.046 212.397H729.302V221.814H731.046V212.397Z" fill="#3F3D56"/>
<path id="Vector_111" d="M764.004 207.34H762.261V216.757H764.004V207.34Z" fill="#3F3D56"/>
<path id="Vector_112" d="M856.08 212.92H854.336V222.337H856.08V212.92Z" fill="#3F3D56"/>
<path id="Vector_113" d="M722.152 244.31H720.408V253.726H722.152V244.31Z" fill="#3F3D56"/>
<path id="Vector_114" d="M793.384 227.855L791.95 226.863L786.592 234.607L788.026 235.599L793.384 227.855Z" fill="#3F3D56"/>
<path id="Vector_115" d="M701.039 212.977L699.957 214.345L707.342 220.188L708.424 218.82L701.039 212.977Z" fill="#3F3D56"/>
<path id="Vector_116" d="M803.577 177.751L802.495 179.119L809.88 184.962L810.962 183.594L803.577 177.751Z" fill="#3F3D56"/>
<path id="Vector_117" d="M681.855 222.746L680.773 224.114L688.158 229.957L689.24 228.589L681.855 222.746Z" fill="#3F3D56"/>
<path id="Vector_118" d="M737.498 190.25H735.754V199.667H737.498V190.25Z" fill="white"/>
<path id="Vector_119" d="M689.716 238.729H687.973V248.146H689.716V238.729Z" fill="white"/>
<path id="Vector_120" d="M771.329 176.648H769.585V186.065H771.329V176.648Z" fill="white"/>
<path id="Vector_121" d="M855.033 235.59H853.289V245.007H855.033V235.59Z" fill="white"/>
<path id="Vector_122" d="M781.02 209.626L779.462 208.844L775.239 217.261L776.797 218.043L781.02 209.626Z" fill="white"/>
<path id="Vector_123" d="M772.999 244.503L771.44 243.721L767.217 252.138L768.776 252.92L772.999 244.503Z" fill="white"/>
<path id="Vector_124" d="M869.259 228.809L867.7 228.027L863.478 236.443L865.036 237.225L869.259 228.809Z" fill="white"/>
<path id="Vector_125" d="M749.027 225.362L747.87 226.667L754.917 232.914L756.073 231.609L749.027 225.362Z" fill="white"/>
<path id="Vector_126" d="M714.499 184.556L713.342 185.861L720.388 192.108L721.545 190.803L714.499 184.556Z" fill="white"/>
<path id="Vector_127" d="M829.244 200.251L828.087 201.556L835.134 207.803L836.29 206.498L829.244 200.251Z" fill="white"/>
<path id="Vector_128" d="M787.043 169.559L785.886 170.864L792.932 177.111L794.089 175.806L787.043 169.559Z" fill="white"/>
<path id="Vector_129" d="M750.751 207.34H749.007V216.757H750.751V207.34Z" fill="#FF6347"/>
<path id="Vector_130" d="M849.131 213.287L847.526 212.605L843.846 221.273L845.451 221.955L849.131 213.287Z" fill="#FF6347"/>
<path id="Vector_131" d="M715.845 222.532L714.334 223.404L719.043 231.559L720.553 230.687L715.845 222.532Z" fill="#FF6347"/>
<path id="Vector_132" d="M815.593 215.905L814.083 216.777L818.791 224.933L820.301 224.061L815.593 215.905Z" fill="#FF6347"/>
<path id="Vector_133" d="M753.512 181.377L752.001 182.249L756.71 190.404L758.22 189.532L753.512 181.377Z" fill="#FF6347"/>
<path id="Vector_134" d="M827.451 179.633L825.941 180.505L830.649 188.66L832.159 187.789L827.451 179.633Z" fill="#FF6347"/>
<path id="Vector_135" d="M731.539 171.96L730.029 172.832L734.737 180.987L736.248 180.116L731.539 171.96Z" fill="#FF6347"/>
<path id="Vector_136" d="M794.347 188.507H792.604V197.923H794.347V188.507Z" fill="#FF6347"/>
<path id="Vector_137" d="M693.902 204.201H692.158V213.618H693.902V204.201Z" fill="#FF6347"/>
</g>
</g>
<g id="two-person">
<path id="Vector_138" d="M582.983 358.942C587.229 347.833 587.844 337.747 584.357 336.414C580.869 335.081 574.6 343.006 570.354 354.115C566.108 365.224 565.493 375.31 568.98 376.643C572.468 377.976 578.737 370.051 582.983 358.942Z" fill="#2F2E41"/>
<path id="Vector_139" d="M551.581 555.869C575.366 555.869 594.648 536.587 594.648 512.801C594.648 489.016 575.366 469.734 551.581 469.734C527.795 469.734 508.513 489.016 508.513 512.801C508.513 536.587 527.795 555.869 551.581 555.869Z" fill="#2F2E41"/>
<path id="Vector_140" d="M545.039 546.601H531.955V570.043H545.039V546.601Z" fill="#2F2E41"/>
<path id="Vector_141" d="M571.206 546.601H558.122V570.043H571.206V546.601Z" fill="#2F2E41"/>
<path id="Vector_142" d="M542.858 574.404C548.88 574.404 553.761 572.573 553.761 570.315C553.761 568.057 548.88 566.227 542.858 566.227C536.836 566.227 531.955 568.057 531.955 570.315C531.955 572.573 536.836 574.404 542.858 574.404Z" fill="#2F2E41"/>
<path id="Vector_143" d="M569.026 573.859C575.047 573.859 579.929 572.028 579.929 569.77C579.929 567.512 575.047 565.681 569.026 565.681C563.004 565.681 558.122 567.512 558.122 569.77C558.122 572.028 563.004 573.859 569.026 573.859Z" fill="#2F2E41"/>
<path id="Vector_144" d="M552.671 516.617C560.8 516.617 567.39 510.027 567.39 501.898C567.39 493.769 560.8 487.179 552.671 487.179C544.542 487.179 537.952 493.769 537.952 501.898C537.952 510.027 544.542 516.617 552.671 516.617Z" fill="white"/>
<path id="Vector_145" d="M552.671 506.805C555.381 506.805 557.577 504.608 557.577 501.898C557.577 499.188 555.381 496.992 552.671 496.992C549.961 496.992 547.764 499.188 547.764 501.898C547.764 504.608 549.961 506.805 552.671 506.805Z" fill="#3F3D56"/>
<path id="Vector_146" d="M509.804 472.75C506.326 457.176 517.442 441.439 534.632 437.601C551.822 433.763 568.577 443.276 572.054 458.85C575.532 474.424 564.139 480.168 546.949 484.006C529.759 487.844 513.281 488.324 509.804 472.75Z" fill="#CFCCE0"/>
<path id="Vector_147" d="M536.861 432.118C560.647 432.118 579.929 412.836 579.929 389.051C579.929 365.265 560.647 345.983 536.861 345.983C513.076 345.983 493.794 365.265 493.794 389.051C493.794 412.836 513.076 432.118 536.861 432.118Z" fill="#2F2E41"/>
<path id="Vector_148" d="M530.319 422.85H517.236V446.292H530.319V422.85Z" fill="#2F2E41"/>
<path id="Vector_149" d="M556.487 422.85H543.403V446.292H556.487V422.85Z" fill="#2F2E41"/>
<path id="Vector_150" d="M528.139 450.653C534.16 450.653 539.042 448.823 539.042 446.565C539.042 444.307 534.16 442.476 528.139 442.476C522.117 442.476 517.236 444.307 517.236 446.565C517.236 448.823 522.117 450.653 528.139 450.653Z" fill="#2F2E41"/>
<path id="Vector_151" d="M554.306 450.108C560.328 450.108 565.209 448.278 565.209 446.02C565.209 443.762 560.328 441.931 554.306 441.931C548.285 441.931 543.403 443.762 543.403 446.02C543.403 448.278 548.285 450.108 554.306 450.108Z" fill="#2F2E41"/>
<path id="Vector_152" d="M537.952 392.867C546.081 392.867 552.671 386.277 552.671 378.148C552.671 370.019 546.081 363.428 537.952 363.428C529.822 363.428 523.232 370.019 523.232 378.148C523.232 386.277 529.822 392.867 537.952 392.867Z" fill="white"/>
<path id="Vector_153" d="M537.952 383.054C540.661 383.054 542.858 380.857 542.858 378.148C542.858 375.438 540.661 373.241 537.952 373.241C535.242 373.241 533.045 375.438 533.045 378.148C533.045 380.857 535.242 383.054 537.952 383.054Z" fill="#3F3D56"/>
<path id="Vector_154" d="M495.085 348.999C491.607 333.426 502.723 317.689 519.913 313.851C537.103 310.012 553.857 319.526 557.335 335.099C560.812 350.673 549.42 356.417 532.23 360.256C515.04 364.094 498.562 364.573 495.085 348.999Z" fill="#CFCCE0"/>
<path id="Vector_155" d="M507.809 378.295C509.409 374.922 501.995 368.056 491.25 362.959C480.505 357.863 470.497 356.466 468.897 359.84C467.297 363.213 474.711 370.079 485.456 375.175C496.202 380.272 506.21 381.669 507.809 378.295Z" fill="#2F2E41"/>
<path id="Vector_156" d="M515.707 404.588C515.707 408.803 526.56 417.126 538.603 417.126C550.647 417.126 561.939 405.259 561.939 401.044C561.939 396.829 550.647 401.862 538.603 401.862C526.56 401.862 515.707 400.373 515.707 404.588Z" fill="white"/>
<path id="Vector_157" d="M624.665 343.188C624.802 342.133 624.712 341.061 624.401 340.043C624.09 339.025 623.564 338.086 622.859 337.289C622.155 336.492 621.287 335.854 620.316 335.42C619.344 334.986 618.291 334.764 617.227 334.771H614.851C615.426 333.694 615.727 332.492 615.727 331.271C615.721 329.284 614.929 327.379 613.524 325.974C612.119 324.569 610.214 323.777 608.227 323.771H583.227C581.238 323.771 579.33 324.561 577.924 325.968C576.517 327.374 575.727 329.282 575.727 331.271C575.727 333.26 576.517 335.168 577.924 336.574C579.33 337.981 581.238 338.771 583.227 338.771H585.603C585.028 339.848 584.727 341.05 584.727 342.271C584.733 343.831 585.223 345.35 586.13 346.619C587.037 347.888 588.316 348.844 589.79 349.354C589.652 350.409 589.742 351.481 590.053 352.499C590.365 353.517 590.89 354.456 591.595 355.253C592.299 356.051 593.167 356.688 594.138 357.122C595.11 357.556 596.163 357.778 597.227 357.771H622.227C624.001 357.772 625.719 357.144 627.073 355.998C628.428 354.852 629.332 353.263 629.625 351.512C629.917 349.762 629.579 347.965 628.671 346.441C627.763 344.917 626.343 343.764 624.665 343.188V343.188Z" fill="#FF6347"/>
</g>
<g id="lying-person">
<path id="Vector_158" d="M625.58 537.589L628.807 549.263L649.725 543.481L646.497 531.806L625.58 537.589Z" fill="#2F2E41"/>
<path id="Vector_159" d="M627.028 551.323C629.043 550.766 629.472 545.959 627.987 540.586C626.502 535.213 623.664 531.308 621.649 531.865C619.634 532.422 619.205 537.23 620.69 542.603C622.176 547.976 625.013 551.88 627.028 551.323Z" fill="#2F2E41"/>
<path id="Vector_160" d="M691.608 497.436C693.087 486.526 691.509 477.305 688.084 476.841C684.659 476.376 680.684 484.845 679.205 495.755C677.726 506.665 679.304 515.886 682.729 516.35C686.154 516.814 690.13 508.346 691.608 497.436Z" fill="#2F2E41"/>
<path id="Vector_161" d="M681.504 573.788C703.524 573.788 721.375 555.937 721.375 533.917C721.375 511.897 703.524 494.046 681.504 494.046C659.484 494.046 641.633 511.897 641.633 533.917C641.633 555.937 659.484 573.788 681.504 573.788Z" fill="#2F2E41"/>
<path id="Vector_162" d="M625.58 530.523L628.807 542.198L649.725 536.416L646.497 524.741L625.58 530.523Z" fill="#2F2E41"/>
<path id="Vector_163" d="M627.027 544.263C629.042 543.706 629.471 538.899 627.986 533.526C626.501 528.152 623.663 524.248 621.648 524.805C619.633 525.362 619.204 530.169 620.689 535.543C622.175 540.916 625.012 544.82 627.027 544.263Z" fill="#2F2E41"/>
<path id="Vector_164" d="M691.973 524.703C699.499 524.703 705.6 518.602 705.6 511.076C705.6 503.55 699.499 497.449 691.973 497.449C684.447 497.449 678.346 503.55 678.346 511.076C678.346 518.602 684.447 524.703 691.973 524.703Z" fill="white"/>
<path id="Vector_165" d="M696.331 509.599C698.84 509.599 700.873 507.565 700.873 505.057C700.873 502.548 698.84 500.514 696.331 500.514C693.822 500.514 691.789 502.548 691.789 505.057C691.789 507.565 693.822 509.599 696.331 509.599Z" fill="#3F3D56"/>
<path id="Vector_166" d="M727.547 561.316C742.301 560.577 753.601 546.777 752.786 530.491C751.971 514.205 739.35 501.602 724.595 502.34C709.841 503.079 707.526 514.661 708.341 530.947C709.156 547.232 712.792 562.054 727.547 561.316Z" fill="#CFCCE0"/>
<path id="Vector_167" d="M665.209 517.047C662.807 517.242 660.427 516.474 658.591 514.913C656.756 513.353 655.615 511.127 655.421 508.725C655.226 506.324 655.994 503.943 657.555 502.108C659.115 500.272 661.341 499.132 663.743 498.937C668.744 498.533 670.108 502.503 670.512 507.504C670.917 512.505 670.209 516.643 665.209 517.047Z" fill="white"/>
<path id="Vector_168" d="M676.643 506.91C678.122 495.999 676.544 486.779 673.119 486.314C669.694 485.85 665.719 494.318 664.24 505.229C662.761 516.139 664.339 525.36 667.764 525.824C671.189 526.288 675.164 517.82 676.643 506.91Z" fill="#2F2E41"/>
</g>
<g id="left-person">
<path id="Vector_169" d="M368.741 546.171C391.944 546.171 410.753 527.361 410.753 504.159C410.753 480.956 391.944 462.146 368.741 462.146C345.538 462.146 326.729 480.956 326.729 504.159C326.729 527.361 345.538 546.171 368.741 546.171Z" fill="#2F2E41"/>
<path id="Vector_170" d="M384.968 557.968L397.527 555.694L393.453 533.193L380.894 535.466L384.968 557.968Z" fill="#2F2E41"/>
<path id="Vector_171" d="M359.849 562.515L372.408 560.242L368.335 537.74L355.776 540.013L359.849 562.515Z" fill="#2F2E41"/>
<path id="Vector_172" d="M366.516 567.25C370.999 563.454 373.479 559.014 372.055 557.333C370.632 555.652 365.844 557.367 361.361 561.163C356.878 564.959 354.399 569.4 355.822 571.081C357.246 572.762 362.034 571.047 366.516 567.25Z" fill="#2F2E41"/>
<path id="Vector_173" d="M391.111 562.798C395.594 559.002 398.074 554.562 396.65 552.881C395.226 551.2 390.439 552.915 385.956 556.711C381.473 560.507 378.994 564.947 380.417 566.628C381.841 568.309 386.629 566.594 391.111 562.798Z" fill="#2F2E41"/>
<path id="Vector_174" d="M365.8 508.241C373.73 508.241 380.159 501.812 380.159 493.882C380.159 485.952 373.73 479.524 365.8 479.524C357.87 479.524 351.441 485.952 351.441 493.882C351.441 501.812 357.87 508.241 365.8 508.241Z" fill="white"/>
<path id="Vector_175" d="M359.899 493.522C362.542 493.522 364.685 491.379 364.685 488.735C364.685 486.092 362.542 483.949 359.899 483.949C357.255 483.949 355.112 486.092 355.112 488.735C355.112 491.379 357.255 493.522 359.899 493.522Z" fill="#3F3D56"/>
<path id="Vector_176" d="M401.883 458.454C402.515 442.9 389.11 429.726 371.942 429.029C354.775 428.331 340.345 440.375 339.713 455.928C339.082 471.482 351.015 475.016 368.183 475.713C385.351 476.411 401.251 474.007 401.883 458.454Z" fill="#CFCCE0"/>
<path id="Vector_177" d="M350.424 501.198C351.237 497.648 342.73 492.669 331.422 490.077C320.114 487.485 310.287 488.262 309.473 491.811C308.66 495.361 317.167 500.34 328.475 502.932C339.783 505.525 349.61 504.748 350.424 501.198Z" fill="#2F2E41"/>
<path id="Vector_178" d="M432.892 514.912C433.706 511.362 425.199 506.383 413.891 503.791C402.582 501.199 392.756 501.976 391.942 505.526C391.128 509.076 399.636 514.055 410.944 516.647C422.252 519.239 432.079 518.462 432.892 514.912Z" fill="#2F2E41"/>
<path id="Vector_179" d="M380.28 520.715C380.505 521.953 380.483 523.222 380.217 524.451C379.951 525.68 379.446 526.845 378.729 527.878C378.013 528.912 377.1 529.794 376.043 530.475C374.985 531.156 373.804 531.621 372.567 531.845C371.329 532.069 370.06 532.047 368.831 531.781C367.602 531.514 366.438 531.008 365.404 530.291C364.371 529.574 363.489 528.66 362.809 527.602C362.129 526.545 361.664 525.363 361.441 524.126C360.499 518.923 364.522 517.083 369.724 516.141C374.926 515.199 379.338 515.513 380.28 520.715Z" fill="white"/>
</g>
</g>
<defs>
<clipPath id="clip0">
<rect width="891.38" height="573.886" fill="white"/>
</clipPath>
</defs>
</svg>
