<svg width="826" height="620" viewBox="0 0 826 620" fill="none" xmlns="http://www.w3.org/2000/svg">
<path d="M91.0822 255.448C83.4733 255.448 76.0352 257.704 69.7086 261.932C63.382 266.159 58.451 272.167 55.5392 279.197C52.6274 286.227 51.8655 293.962 53.3499 301.425C54.8344 308.888 58.4984 315.742 63.8788 321.123C69.2591 326.503 76.114 330.167 83.5768 331.652C91.0395 333.136 98.7748 332.374 105.805 329.462C112.834 326.551 118.843 321.62 123.07 315.293C127.297 308.966 129.554 301.528 129.554 293.919C129.524 283.725 125.461 273.957 118.253 266.749C111.044 259.541 101.276 255.478 91.0822 255.448ZM91.0822 266.989C93.3649 266.989 95.5963 267.666 97.4943 268.934C99.3923 270.203 100.872 272.005 101.745 274.114C102.619 276.223 102.847 278.544 102.402 280.782C101.957 283.021 100.857 285.078 99.2432 286.692C97.6291 288.306 95.5727 289.405 93.3338 289.851C91.095 290.296 88.7744 290.067 86.6655 289.194C84.5565 288.32 82.754 286.841 81.4858 284.943C80.2177 283.045 79.5408 280.814 79.5408 278.531C79.551 275.473 80.7702 272.543 82.9324 270.381C85.0947 268.219 88.0243 267 91.0822 266.989V266.989ZM91.0822 322.551C86.5229 322.53 82.0375 321.397 78.0151 319.251C73.9927 317.104 70.5547 314.009 67.9993 310.233C68.1843 302.538 83.3879 298.303 91.0822 298.303C98.7765 298.303 113.98 302.538 114.165 310.233C111.607 314.006 108.168 317.099 104.146 319.245C100.125 321.392 95.6407 322.526 91.0822 322.551V322.551Z" fill="#8B103E"/>
<path d="M439.206 338.509C437.274 336.483 434.955 334.863 432.388 333.745C429.82 332.628 427.055 332.035 424.254 332.001C421.454 331.968 418.676 332.495 416.082 333.552C413.489 334.608 411.132 336.172 409.152 338.152C407.172 340.132 405.608 342.489 404.552 345.082C403.495 347.676 402.968 350.454 403.001 353.254C403.035 356.055 403.628 358.82 404.745 361.388C405.863 363.955 407.483 366.274 409.509 368.206L439.921 398.618L469.618 368.921C473.493 364.856 475.626 359.437 475.559 353.821C475.492 348.205 473.232 342.838 469.26 338.866C465.289 334.895 459.922 332.635 454.306 332.568C448.69 332.501 443.271 334.633 439.206 338.509Z" fill="#8B103E"/>
<path d="M114.852 486.588C114.852 499.715 91.0822 528.534 91.0822 528.534C91.0822 528.534 67.3125 499.715 67.3125 486.588C67.3105 483.465 67.9238 480.372 69.1174 477.487C70.3111 474.601 72.0616 471.979 74.269 469.77C76.4765 467.561 79.0975 465.809 81.9824 464.614C84.8673 463.418 87.9594 462.803 91.0822 462.803C94.205 462.803 97.2972 463.418 100.182 464.614C103.067 465.809 105.688 467.561 107.895 469.77C110.103 471.979 111.853 474.601 113.047 477.487C114.241 480.372 114.854 483.465 114.852 486.588V486.588Z" fill="#8B103E"/>
<path d="M91.0822 495.926C96.2395 495.926 100.42 491.745 100.42 486.588C100.42 481.431 96.2395 477.25 91.0822 477.25C85.9249 477.25 81.7441 481.431 81.7441 486.588C81.7441 491.745 85.9249 495.926 91.0822 495.926Z" fill="white"/>
<path d="M90.2332 555.101C95.3905 555.101 99.5714 550.92 99.5714 545.762C99.5714 540.605 95.3905 536.424 90.2332 536.424C85.076 536.424 80.8951 540.605 80.8951 545.762C80.8951 550.92 85.076 555.101 90.2332 555.101Z" fill="#8B103E"/>
</svg>
